# xmcd
#
# Track frame offsets: 
#        150
#        13910
#        31755
#        46885
#        62445
#        77400
#        94564
#        109685
#        125313
#        142674
#        159692
#        175296
#
# Disc length: 2534 seconds
#
# Revision: 7
# Processed by: cddbd v1.5.2PL0 Copyright (c) Steve Scherf et al.
# Submitted via: ExactAudioCopy v1.0b3
#
DISCID=8609e40c
DTITLE=Bill Wyman's Rhythm Kings - Double Bill [CD 2)
DYEAR=2001
DGENRE=Rock
TTITLE0=The Joint Is Jumping
TTITLE1=Brownskin Girl
TTITLE2=Tired and Sleepy
TTITLE3=Lonely Blue Boy
TTITLE4=Bye Bye Blues
TTITLE5=Where's The Money
TTITLE6=Jellyroll Fool
TTITLE7=Jealous Girl
TTITLE8=My Handy Man
TTITLE9=Rollin' and Stumblin'
TTITLE10=Keep On Truckin'
TTITLE11=Breakin' Up The House
EXTD=YEAR: 2001
EXTT0=
EXTT1=
EXTT2=
EXTT3=
EXTT4=
EXTT5=
EXTT6=
EXTT7=
EXTT8=
EXTT9=
EXTT10=
EXTT11=
PLAYORDER=
